<svg xmlns="http://www.w3.org/2000/svg" viewBox="0 0 1440 1569"><defs><style>.cls-1{fill:none;stroke:#7d96ea;stroke-miterlimit:10;}</style></defs><title>28px-gridAsset 1</title><g id="Layer_2" data-name="Layer 2"><g id="Layer_1-2" data-name="Layer 1"><line class="cls-1" y1="0.5" x2="1440" y2="0.5"/><line class="cls-1" y1="28.5" x2="1440" y2="28.5"/><line class="cls-1" y1="56.5" x2="1440" y2="56.5"/><line class="cls-1" y1="84.5" x2="1440" y2="84.5"/><line class="cls-1" y1="112.5" x2="1440" y2="112.5"/><line class="cls-1" y1="140.5" x2="1440" y2="140.5"/><line class="cls-1" y1="168.5" x2="1440" y2="168.5"/><line class="cls-1" y1="196.5" x2="1440" y2="196.5"/><line class="cls-1" y1="224.5" x2="1440" y2="224.5"/><line class="cls-1" y1="252.5" x2="1440" y2="252.5"/><line class="cls-1" y1="280.5" x2="1440" y2="280.5"/><line class="cls-1" y1="308.5" x2="1440" y2="308.5"/><line class="cls-1" y1="336.5" x2="1440" y2="336.5"/><line class="cls-1" y1="364.5" x2="1440" y2="364.5"/><line class="cls-1" y1="392.5" x2="1440" y2="392.5"/><line class="cls-1" y1="420.5" x2="1440" y2="420.5"/><line class="cls-1" y1="448.5" x2="1440" y2="448.5"/><line class="cls-1" y1="476.5" x2="1440" y2="476.5"/><line class="cls-1" y1="504.5" x2="1440" y2="504.5"/><line class="cls-1" y1="532.5" x2="1440" y2="532.5"/><line class="cls-1" y1="560.5" x2="1440" y2="560.5"/><line class="cls-1" y1="588.5" x2="1440" y2="588.5"/><line class="cls-1" y1="616.5" x2="1440" y2="616.5"/><line class="cls-1" y1="644.5" x2="1440" y2="644.5"/><line class="cls-1" y1="672.5" x2="1440" y2="672.5"/><line class="cls-1" y1="700.5" x2="1440" y2="700.5"/><line class="cls-1" y1="728.5" x2="1440" y2="728.5"/><line class="cls-1" y1="756.5" x2="1440" y2="756.5"/><line class="cls-1" y1="784.5" x2="1440" y2="784.5"/><line class="cls-1" y1="812.5" x2="1440" y2="812.5"/><line class="cls-1" y1="840.5" x2="1440" y2="840.5"/><line class="cls-1" y1="868.5" x2="1440" y2="868.5"/><line class="cls-1" y1="896.5" x2="1440" y2="896.5"/><line class="cls-1" y1="924.5" x2="1440" y2="924.5"/><line class="cls-1" y1="952.5" x2="1440" y2="952.5"/><line class="cls-1" y1="980.5" x2="1440" y2="980.5"/><line class="cls-1" y1="1008.5" x2="1440" y2="1008.5"/><line class="cls-1" y1="1036.5" x2="1440" y2="1036.5"/><line class="cls-1" y1="1064.5" x2="1440" y2="1064.5"/><line class="cls-1" y1="1092.5" x2="1440" y2="1092.5"/><line class="cls-1" y1="1120.5" x2="1440" y2="1120.5"/><line class="cls-1" y1="1148.5" x2="1440" y2="1148.5"/><line class="cls-1" y1="1176.5" x2="1440" y2="1176.5"/><line class="cls-1" y1="1204.5" x2="1440" y2="1204.5"/><line class="cls-1" y1="1232.5" x2="1440" y2="1232.5"/><line class="cls-1" y1="1260.5" x2="1440" y2="1260.5"/><line class="cls-1" y1="1288.5" x2="1440" y2="1288.5"/><line class="cls-1" y1="1316.5" x2="1440" y2="1316.5"/><line class="cls-1" y1="1344.5" x2="1440" y2="1344.5"/><line class="cls-1" y1="1372.5" x2="1440" y2="1372.5"/><line class="cls-1" y1="1400.5" x2="1440" y2="1400.5"/><line class="cls-1" y1="1428.5" x2="1440" y2="1428.5"/><line class="cls-1" y1="1456.5" x2="1440" y2="1456.5"/><line class="cls-1" y1="1484.5" x2="1440" y2="1484.5"/><line class="cls-1" y1="1512.5" x2="1440" y2="1512.5"/><line class="cls-1" y1="1540.5" x2="1440" y2="1540.5"/><line class="cls-1" y1="1568.5" x2="1440" y2="1568.5"/></g></g></svg>