<?xml version="1.0" encoding="utf-8"?>
<!-- Generator: Adobe Illustrator 23.0.4, SVG Export Plug-In . SVG Version: 6.00 Build 0)  -->
<svg version="1.1" id="Capa_1" xmlns="http://www.w3.org/2000/svg" xmlns:xlink="http://www.w3.org/1999/xlink" x="0px" y="0px"
	 viewBox="0 0 100 95.6" style="enable-background:new 0 0 100 95.6;" xml:space="preserve">
<style type="text/css">
	.st0{fill:#051D34;}
</style>
<title>icon-socials-linkedin</title>
<g>
	<g id="Capa_1-2">
		<path id="LinkedIn" class="st0" d="M100,58.6v37H78.6V61.1c0-8.7-3.1-14.6-10.9-14.6c-5.9,0-9.5,4-11,7.8
			c-0.5,1.7-0.8,3.5-0.7,5.2v36H34.6c0,0,0.3-58.4,0-64.5H56v9.1c0,0.1-0.1,0.1-0.1,0.2H56v-0.2c2.8-4.4,7.9-10.6,19.3-10.6
			C89.4,29.6,100,38.8,100,58.6z M12.1,0C4.8,0,0,4.8,0,11.1s4.7,11.1,11.9,11.1H12c7.5,0,12.1-5,12.1-11.1S19.5,0,12.1,0z
			 M1.3,95.6h21.4V31.1H1.3V95.6z"/>
	</g>
</g>
</svg>
