<svg xmlns="http://www.w3.org/2000/svg" viewBox="0 0 100 100"><defs><style>.cls-1{fill:#051d34;}</style></defs><title>icon-socials-instagram</title><g id="Capa_2" data-name="Capa 2"><g id="Layer_1" data-name="Layer 1"><path class="cls-1" d="M72.4,0H27.6A27.63,27.63,0,0,0,0,27.6V72.4A27.63,27.63,0,0,0,27.6,100H72.4A27.63,27.63,0,0,0,100,72.4V27.6A27.63,27.63,0,0,0,72.4,0ZM91.13,72.4A18.75,18.75,0,0,1,72.4,91.13H27.6A18.75,18.75,0,0,1,8.87,72.4V27.6A18.75,18.75,0,0,1,27.6,8.87H72.4A18.75,18.75,0,0,1,91.13,27.6V72.4Z"/><path class="cls-1" d="M50,24.23A25.77,25.77,0,1,0,75.77,50,25.8,25.8,0,0,0,50,24.23Zm0,42.66A16.89,16.89,0,1,1,66.89,50,16.9,16.9,0,0,1,50,66.89Z"/><path class="cls-1" d="M76.85,16.71a6.5,6.5,0,1,0,4.6,1.91A6.52,6.52,0,0,0,76.85,16.71Z"/></g></g></svg>