<svg xmlns="http://www.w3.org/2000/svg" viewBox="0 0 512 501.34"><defs><style>.cls-1{fill:#051d34;}</style></defs><title>icon-socials-github</title><g id="Capa_2" data-name="Capa 2"><g id="Capa_1-2" data-name="Capa 1"><path class="cls-1" d="M256,0C114.62,0,0,115.07,0,257A257,257,0,0,0,175.1,500.9c12.8,2.36,17.48-5.57,17.48-12.39,0-6.11-.23-22.27-.36-43.71C121,460.32,106,410.34,106,410.34c-11.61-29.7-28.41-37.6-28.41-37.6C54.3,356.8,79.3,357.12,79.3,357.12c25.69,1.82,39.2,26.5,39.2,26.5C141.34,422.88,178.43,411.55,193,405c2.31-16.61,8.93-27.94,16.26-34.37-56.83-6.49-116.61-28.54-116.61-127,0-28.06,10-51,26.37-69-2.66-6.49-11.42-32.64,2.5-68,0,0,21.5-6.91,70.4,26.34a241.66,241.66,0,0,1,128.19,0c48.86-33.25,70.33-26.34,70.33-26.34,14,35.4,5.19,61.51,2.56,68,16.42,18,26.31,40.93,26.31,69,0,98.72-59.84,120.44-116.87,126.81,9.19,7.94,17.38,23.62,17.38,47.59,0,34.36-.32,62.08-.32,70.49,0,6.88,4.61,14.88,17.6,12.35A257,257,0,0,0,512,257C512,115.07,397.38,0,256,0Z"/></g></g></svg>