<?xml version="1.0" encoding="utf-8"?>
<!-- Generator: Adobe Illustrator 23.0.4, SVG Export Plug-In . SVG Version: 6.00 Build 0)  -->
<svg version="1.1" id="Capa_1" xmlns="http://www.w3.org/2000/svg" xmlns:xlink="http://www.w3.org/1999/xlink" x="0px" y="0px"
	 viewBox="0 0 123.1 100" style="enable-background:new 0 0 123.1 100;" xml:space="preserve">
<style type="text/css">
	.st0{fill:#051D34;}
</style>
<title>ico-social-twitter</title>
<g>
	<g id="Capa_1-2">
		<path class="st0" d="M123.1,11.8c-4.6,2-9.5,3.4-14.5,4c5.3-3.1,9.2-8.1,11.1-13.9c-4.9,2.9-10.4,5-16,6.1
			C94.1-2.2,78.1-2.7,68,6.9c-5.1,4.8-8,11.4-8,18.4c0,1.9,0.2,3.9,0.6,5.8c-20.3-1-39.2-10.6-52-26.4c-6.7,11.5-3.3,26.3,7.8,33.7
			c-4-0.1-7.9-1.2-11.4-3.1v0.3c0,12,8.5,22.4,20.2,24.8c-2.2,0.6-4.4,0.9-6.6,0.8c-1.6,0-3.2-0.1-4.8-0.4
			C17.1,70.9,26.5,78,37.3,78.3C28.4,85.2,17.3,89,6,89c-2,0-4-0.1-6-0.3C11.5,96.1,25,100,38.7,100c46.4,0,71.8-38.5,71.8-71.8
			c0-1.1,0-2.2-0.1-3.3C115.4,21.4,119.7,16.9,123.1,11.8z"/>
	</g>
</g>
</svg>
