<svg xmlns="http://www.w3.org/2000/svg" viewBox="0 0 169.69 55.47"><defs><style>.cls-1{fill:#fff;}</style></defs><title>logo-miles-white</title><g id="Capa_2" data-name="Capa 2"><g id="Capa_1-2" data-name="Capa 1"><path class="cls-1" d="M25.88,19.14A16,16,0,0,1,10,3H0V54.71H10V22.45a2.86,2.86,0,0,0,.8.93,24.05,24.05,0,0,0,15.1,5.09A24.05,24.05,0,0,0,41,23.38a2.86,2.86,0,0,0,.8-.93V54.71h10V3h-10A16,16,0,0,1,25.88,19.14"/><path class="cls-1" d="M126.22,32.18a7.16,7.16,0,0,0-7.1-6.29,7.77,7.77,0,0,0-7.69,6.29ZM135.16,49a19.46,19.46,0,0,1-14.71,6.44c-10.72,0-18.78-7.4-18.78-18.64,0-10,6.8-18.7,17.45-18.7,9.91,0,16.93,8.35,16.93,18.33a15.52,15.52,0,0,1-.22,2.74H111a9.42,9.42,0,0,0,9.69,8.5,12.67,12.67,0,0,0,9-4.14Z"/><path class="cls-1" d="M72.83,54.72H63.22V18.85h9.61ZM68,0a6.14,6.14,0,1,1-6.28,6.14A6.16,6.16,0,0,1,68,0"/><path class="cls-1" d="M145.66,43.77a15.09,15.09,0,0,0,9.84,3.55c2.58,0,4.58-1.26,4.58-3,0-5.4-17.38-3.48-17.38-15,0-6.88,6.66-11.16,13.76-11.16,4.65,0,9.76,1.77,12.12,3.62l-4.51,7a12.1,12.1,0,0,0-6.87-2.44c-2.67,0-4.88,1-4.88,2.88,0,4.66,17.37,2.81,17.37,15.23,0,6.88-6.73,11.09-14.27,11.09A24.86,24.86,0,0,1,141,50.65Z"/><rect class="cls-1" x="83.92" y="2.22" width="9.61" height="52.5"/></g></g></svg>